<?xml version="1.0" standalone="no"?><!DOCTYPE svg PUBLIC "-//W3C//DTD SVG 1.1//EN" "http://www.w3.org/Graphics/SVG/1.1/DTD/svg11.dtd"><svg height="500" node-id="1" sillyvg="true" template-height="500" template-width="500" version="1.1" viewBox="0 0 500 500" width="500" xmlns="http://www.w3.org/2000/svg" xmlns:xlink="http://www.w3.org/1999/xlink"><defs node-id="163"><linearGradient gradientUnits="objectBoundingBox" id="linearGradient-3" node-id="6" spreadMethod="pad" x1="0.44500813" x2="0.6461584" y1="0.5080257" y2="0.49277717"><stop offset="0" stop-color="#ebddef"></stop><stop offset="1" stop-color="#d6bce2"></stop></linearGradient><linearGradient gradientUnits="objectBoundingBox" id="linearGradient-4" node-id="9" spreadMethod="pad" x1="0.000032596487" x2="1.0000015" y1="0.5000725" y2="0.5000725"><stop offset="0" stop-color="#ebddef"></stop><stop offset="1" stop-color="#d8c1e4"></stop></linearGradient><linearGradient gradientUnits="objectBoundingBox" id="linearGradient-7" node-id="13" spreadMethod="pad" x1="0.000008387125" x2="0.99998575" y1="0.49999785" y2="0.49999785"><stop offset="0" stop-color="#ebddef"></stop><stop offset="1" stop-color="#d6bce2"></stop></linearGradient><linearGradient gradientUnits="objectBoundingBox" id="linearGradient-8" node-id="16" spreadMethod="pad" x1="-0.000018052322" x2="0.99991614" y1="0.49999774" y2="0.49999774"><stop offset="0" stop-color="#ebddef"></stop><stop offset="1" stop-color="#d8c1e4"></stop></linearGradient><linearGradient gradientUnits="objectBoundingBox" id="linearGradient-11" node-id="20" spreadMethod="pad" x1="-0.09221263" x2="1.0277973" y1="0.49999592" y2="0.49999592"><stop offset="0" stop-color="#ebddef"></stop><stop offset="1" stop-color="#d8c1e4"></stop></linearGradient><linearGradient gradientUnits="objectBoundingBox" id="linearGradient-12" node-id="23" spreadMethod="pad" x1="0.000049899012" x2="1.0000384" y1="0.5000565" y2="0.5000565"><stop offset="0" stop-color="#ebddef"></stop><stop offset="1" stop-color="#d8c1e4"></stop></linearGradient><linearGradient gradientUnits="objectBoundingBox" id="linearGradient-15" node-id="27" spreadMethod="pad" x1="-0.0000033862484" x2="1.0000224" y1="0.49998942" y2="0.49998942"><stop offset="0" stop-color="#ebddef"></stop><stop offset="1" stop-color="#d6bce2"></stop></linearGradient><linearGradient gradientUnits="objectBoundingBox" id="linearGradient-16" node-id="30" spreadMethod="pad" x1="0.000023309158" x2="0.99997103" y1="0.50008374" y2="0.50008374"><stop offset="0" stop-color="#ebddef"></stop><stop offset="1" stop-color="#d8c1e4"></stop></linearGradient><mask height="27.431068" id="mask-2" maskUnits="userSpaceOnUse" node-id="44" width="9.522507" x="248.27605" y="56.050354"><path d="M 254.90 59.50 L 249.10 79.90 L 250.00 81.00 L 250.70 81.20 L 256.50 81.20 L 256.70 77.90 L 255.70 77.60 L 255.30 77.10 L 255.10 75.10 L 256.70 74.60 L 256.70 73.80 L 255.00 72.10 L 254.60 71.50 L 254.50 70.70 L 255.90 70.70 L 256.70 70.20 L 257.00 69.60 L 255.60 67.40 L 255.60 66.90 L 256.70 66.90 L 256.90 66.10 L 254.90 64.40 L 256.30 63.00 L 256.90 61.20 L 256.30 58.30 L 255.50 58.70 L 254.90 59.50" fill="#ffffff" fill-rule="evenodd" node-id="216" stroke="none" target-height="22.899998" target-width="7.899994" target-x="249.1" target-y="58.3"></path></mask><mask height="36.30046" id="mask-6" maskUnits="userSpaceOnUse" node-id="52" width="15.646332" x="321.0032" y="100.16942"><path d="M 325.20 103.20 L 325.90 107.70 L 325.80 109.10 L 324.90 110.80 L 323.70 111.90 L 325.40 112.90 L 325.70 113.50 L 325.60 114.30 L 322.70 115.30 L 322.30 116.60 L 323.10 117.80 L 325.70 119.10 L 326.80 120.50 L 323.10 122.30 L 324.60 123.90 L 325.40 125.60 L 325.80 129.40 L 325.60 133.40 L 333.10 133.40 L 334.20 133.20 L 334.90 132.60 L 335.30 131.70 L 335.20 130.60 L 327.40 104.80 L 326.60 103.60 L 325.20 103.20" fill="#ffffff" fill-rule="evenodd" node-id="223" stroke="none" target-height="30.199997" target-width="13" target-x="322.3" target-y="103.2"></path></mask><mask height="90.51262" id="mask-10" maskUnits="userSpaceOnUse" node-id="59" width="33.362823" x="378.42865" y="112.27373"><path d="M 384.10 142.50 L 385.50 144.80 L 389.60 149.00 L 389.80 150.70 L 388.70 152.70 L 385.60 154.90 L 383.60 156.90 L 382.30 158.60 L 381.50 160.60 L 381.20 162.50 L 381.40 164.30 L 382.40 167.00 L 384.10 169.90 L 388.70 175.90 L 384.80 177.90 L 383.20 179.20 L 381.50 182.00 L 381.30 183.00 L 381.40 183.80 L 382.20 184.80 L 383.60 185.50 L 390.60 187.00 L 389.50 188.70 L 383.40 193.60 L 382.50 195.20 L 403.50 195.20 L 405.30 195.00 L 406.70 194.20 L 407.90 193.00 L 408.70 191.50 L 409.00 189.90 L 408.80 188.10 L 389.10 123.30 L 388.40 121.70 L 387.40 120.60 L 386.10 119.80 L 386.40 122.50 L 386.20 125.30 L 383.60 136.70 L 383.60 139.50 L 384.10 142.50" fill="#ffffff" fill-rule="evenodd" node-id="230" stroke="none" target-height="75.399994" target-width="27.799988" target-x="381.2" target-y="119.8"></path></mask><mask height="58.587425" id="mask-14" maskUnits="userSpaceOnUse" node-id="66" width="21.594574" x="344.52997" y="95.62888"><path d="M 348.20 115.20 L 348.80 116.30 L 351.80 119.40 L 351.90 120.30 L 351.20 121.80 L 349.20 123.20 L 347.00 125.60 L 346.50 126.90 L 346.50 129.30 L 348.20 132.90 L 351.20 136.80 L 348.60 138.10 L 347.60 139.00 L 346.40 141.10 L 346.50 141.90 L 347.90 143.00 L 352.40 144.00 L 351.70 145.10 L 347.80 148.30 L 347.10 149.30 L 361.90 149.10 L 362.90 148.70 L 364.10 146.90 L 364.20 144.70 L 351.00 101.70 L 349.50 100.50 L 349.70 102.80 L 348.10 110.20 L 347.80 112.70 L 348.20 115.20" fill="#ffffff" fill-rule="evenodd" node-id="237" stroke="none" target-height="48.800003" target-width="17.800018" target-x="346.4" target-y="100.5"></path></mask><mask height="83.279816" id="mask-18" maskUnits="userSpaceOnUse" node-id="87" width="175.4963" x="314.27332" y="382.93222"><path d="M 339.60 442.20 L 335.60 443.40 L 328.90 444.80 L 329.30 459.30 L 333.60 458.40 L 337.10 457.20 L 475.10 403.70 L 475.10 389.90 L 339.60 442.20 Z" fill="#ffffff" fill-rule="evenodd" node-id="244" stroke="none" target-height="69.399994" target-width="146.20001" target-x="328.9" target-y="389.9"></path></mask><mask height="38.221313" id="mask-20" maskUnits="userSpaceOnUse" node-id="92" width="55.26361" x="327.39227" y="424.2012"><path d="M 332.00 445.30 L 332.00 459.20 L 378.10 441.30 L 378.10 427.40 Z" fill="#ffffff" fill-rule="evenodd" node-id="251" stroke="none" target-height="31.800018" target-width="46.100006" target-x="332" target-y="427.4"></path></mask><mask height="51.79843" id="mask-22" maskUnits="userSpaceOnUse" node-id="98" width="452.12506" x="8.951828" y="388.95792"><path d="M 159.70 393.30 L 46.60 436.40 L 310.30 436.40 L 423.40 393.30 Z" fill="#ffffff" fill-rule="evenodd" node-id="258" stroke="none" target-height="43.100006" target-width="376.8" target-x="46.6" target-y="393.3"></path></mask><mask height="39.819885" id="mask-24" maskUnits="userSpaceOnUse" node-id="148" width="29.971771" x="249.75372" y="337.69293"><path d="M 252.30 346.00 L 254.80 352.20 L 257.60 357.20 L 260.70 361.60 L 264.90 366.40 L 269.30 370.60 L 273.10 373.40 L 274.60 374.00 L 276.20 374.10 L 276.90 373.40 L 277.20 372.30 L 277.00 369.30 L 275.50 366.00 L 272.70 362.90 L 268.20 359.70 L 267.00 357.80 L 262.70 347.30 L 260.60 343.00 L 259.40 341.80 L 258.30 341.20 L 255.80 341.20 L 253.70 342.50 L 252.90 343.50 L 252.30 346.00" fill="#ffffff" fill-rule="evenodd" node-id="265" stroke="none" target-height="32.899994" target-width="24.90001" target-x="252.3" target-y="341.2"></path></mask></defs><g node-id="267"><g node-id="268"><path d="M 172.10 249.00 L 179.80 235.10 L 182.80 227.50 L 185.20 219.80 L 187.00 212.00 L 187.90 206.00 L 188.40 200.00 L 188.50 194.10 L 188.10 188.20 L 187.30 182.40 L 186.00 176.70 L 184.20 171.10 L 181.90 165.60 L 151.60 103.60 L 147.50 110.50 L 143.60 116.30 L 139.80 121.20 L 135.70 125.70 L 128.10 132.70 L 124.10 135.50 L 116.70 139.80 L 111.10 142.30 L 91.00 149.40 L 86.60 151.60 L 81.20 155.40 L 78.60 157.90 L 76.40 160.60 L 74.20 164.00 L 72.10 168.10 L 67.10 180.70 L 65.50 186.30 L 63.30 196.80 L 62.80 201.80 L 62.90 210.70 L 63.70 216.60 L 64.90 222.00 L 66.60 227.10 L 71.20 236.90 L 78.50 248.20 L 93.70 268.30 L 98.60 275.30 L 103.20 282.80 L 105.90 287.90 L 108.40 293.40 L 110.50 299.20 L 115.50 295.80 L 121.00 292.80 L 143.60 282.40 L 147.80 279.80 L 151.70 276.90 L 155.20 273.60 L 161.40 266.10 L 164.30 262.00 L 172.10 249.00" fill="#f5eef8" fill-rule="evenodd" group-id="1,2" id="Fill-1" node-id="40" stroke="none" target-height="195.6" target-width="125.7" target-x="62.8" target-y="103.6"></path><path d="M 422.50 276.60 L 420.40 267.20 L 419.00 258.50 L 418.30 250.20 L 418.10 242.00 L 418.20 234.10 L 418.80 226.70 L 420.10 215.80 L 427.00 177.40 L 427.90 168.90 L 428.00 163.20 L 427.70 157.80 L 426.90 152.40 L 424.60 144.60 L 420.60 136.70 L 415.00 129.20 L 406.90 121.20 L 402.20 117.40 L 397.80 114.40 L 393.60 112.10 L 389.30 110.10 L 380.90 107.50 L 374.50 106.30 L 353.20 104.20 L 345.30 103.30 L 336.20 101.70 L 323.40 98.50 L 316.00 96.10 L 300.50 89.90 L 291.40 85.50 L 282.50 80.80 L 272.60 75.00 L 254.90 64.00 L 248.30 60.70 L 241.50 58.00 L 234.80 56.00 L 238.50 64.60 L 244.80 74.90 L 253.40 86.20 L 261.50 95.40 L 265.70 99.20 L 270.00 102.70 L 276.90 107.50 L 298.20 121.30 L 306.00 126.90 L 313.30 132.60 L 320.30 138.70 L 326.90 144.90 L 333.10 151.40 L 340.40 159.90 L 347.20 168.70 L 353.60 177.90 L 359.40 187.30 L 364.70 197.00 L 369.60 207.00 L 374.00 217.10 L 377.90 227.50 L 381.50 238.10 L 384.60 248.80 L 387.30 259.70 L 389.70 270.70 L 392.20 285.50 L 394.10 300.40 L 395.40 315.40 L 396.10 330.40 L 396.20 345.30 L 395.90 360.00 L 401.40 356.40 L 406.20 352.50 L 410.40 348.40 L 414.00 344.10 L 417.20 339.50 L 419.90 334.60 L 422.10 329.50 L 423.70 324.20 L 425.00 318.80 L 425.80 313.20 L 426.20 307.40 L 426.20 301.40 L 425.60 293.40 L 424.30 285.10 L 422.50 276.60" fill="#f5eef8" fill-rule="evenodd" group-id="1,2" id="Fill-3" node-id="41" stroke="none" target-height="304" target-width="193.2" target-x="234.8" target-y="56"></path><path d="M 310.70 125.70 L 300.40 120.50 L 282.70 110.50 L 271.10 103.00 L 266.00 99.10 L 261.30 95.00 L 257.70 91.20 L 249.00 80.70 L 244.80 74.90 L 238.50 64.60 L 234.80 56.00 L 228.70 54.60 L 222.70 53.70 L 216.90 53.30 L 211.20 53.30 L 205.50 53.70 L 200.00 54.60 L 194.80 55.80 L 189.80 57.40 L 184.90 59.50 L 180.40 61.90 L 176.30 64.60 L 172.50 67.70 L 169.00 71.10 L 166.00 74.90 L 163.40 78.90 L 158.00 91.00 L 151.60 103.60 L 181.90 165.60 L 184.20 171.10 L 186.00 176.70 L 187.30 182.40 L 188.10 188.20 L 188.50 194.10 L 188.40 200.00 L 187.90 206.00 L 187.00 212.00 L 185.20 219.80 L 182.80 227.50 L 179.80 235.10 L 174.10 245.80 L 168.30 255.60 L 164.30 262.00 L 158.40 270.00 L 155.20 273.60 L 151.70 276.90 L 147.80 279.80 L 143.60 282.40 L 138.20 285.00 L 121.00 292.80 L 115.50 295.80 L 110.50 299.20 L 113.20 309.70 L 114.90 320.90 L 116.30 326.30 L 118.20 331.60 L 120.70 337.00 L 123.50 342.10 L 130.40 352.10 L 134.50 357.10 L 140.30 363.30 L 146.50 369.30 L 153.20 375.10 L 167.20 385.70 L 174.40 390.40 L 189.00 398.70 L 195.90 402.10 L 209.40 407.60 L 215.30 409.40 L 223.50 411.40 L 232.00 412.70 L 240.80 413.50 L 249.60 413.80 L 258.50 413.50 L 267.60 412.80 L 285.50 410.20 L 294.40 408.40 L 311.80 403.80 L 332.20 396.80 L 343.30 392.30 L 353.80 387.40 L 362.80 382.70 L 371.10 377.80 L 377.30 373.50 L 391.30 362.90 L 395.90 360.00 L 398.10 302.70 L 398.20 283.70 L 397.80 271.10 L 396.90 258.70 L 395.60 246.50 L 394.20 237.40 L 392.40 228.40 L 390.20 219.70 L 387.60 211.10 L 384.60 202.70 L 381.00 194.50 L 376.90 186.40 L 372.20 178.60 L 368.20 172.60 L 363.70 166.70 L 358.70 161.00 L 353.30 155.30 L 347.30 149.80 L 341.20 144.80 L 334.60 139.80 L 327.30 135.00 L 319.40 130.30 L 310.70 125.70" fill="#ebdef0" fill-rule="evenodd" group-id="1,2" id="Fill-5" node-id="42" stroke="none" target-height="360.5" target-width="287.7" target-x="110.5" target-y="53.3"></path></g><g node-id="269"><g node-id="282"><path d="M 254.90 59.50 L 249.10 79.90 L 250.00 81.00 L 250.70 81.20 L 256.50 81.20 L 256.70 77.90 L 255.70 77.60 L 255.30 77.10 L 255.10 75.10 L 256.70 74.60 L 256.70 73.80 L 255.00 72.10 L 254.60 71.50 L 254.50 70.70 L 255.90 70.70 L 256.70 70.20 L 257.00 69.60 L 255.60 67.40 L 255.60 66.90 L 256.70 66.90 L 256.90 66.10 L 254.90 64.40 L 256.30 63.00 L 256.90 61.20 L 256.30 58.30 L 255.50 58.70 L 254.90 59.50" fill="url(#linearGradient-3)" fill-rule="evenodd" group-id="1,3,16" id="Fill-7" node-id="47" stroke="none" target-height="22.899998" target-width="7.899994" target-x="249.1" target-y="58.3"></path></g></g><path d="M 264.00 79.00 L 258.10 59.50 L 257.40 58.60 L 256.30 58.30 L 256.90 61.20 L 256.80 62.10 L 256.30 63.00 L 254.90 64.40 L 256.90 66.10 L 256.70 66.90 L 255.60 66.90 L 255.60 67.40 L 257.00 69.60 L 256.70 70.20 L 255.90 70.70 L 254.60 70.70 L 254.60 71.50 L 256.70 73.80 L 256.70 74.60 L 255.10 75.10 L 255.30 77.10 L 255.70 77.60 L 256.70 77.90 L 256.50 81.20 L 263.20 81.00 L 264.00 79.80 L 264.00 79.00" fill="#d7bde2" fill-rule="evenodd" group-id="1" id="Fill-9" node-id="48" stroke="none" target-height="22.899998" target-width="9.399994" target-x="254.6" target-y="58.3"></path><path d="M 254.70 82.70 L 258.50 82.70 L 258.50 81.00 L 254.70 81.00 Z" fill="url(#linearGradient-4)" fill-rule="evenodd" group-id="1" id="Fill-11" node-id="49" stroke="none" target-height="1.699997" target-width="3.800003" target-x="254.7" target-y="81"></path><path d="M 323.10 122.30 L 326.80 120.50 L 325.70 119.10 L 323.10 117.80 L 322.30 116.60 L 322.70 115.30 L 325.60 114.30 L 325.70 113.50 L 325.40 112.90 L 323.70 111.90 L 324.90 110.80 L 325.80 109.10 L 325.90 107.70 L 325.20 103.20 L 324.00 103.60 L 323.20 104.80 L 315.60 130.60 L 315.50 131.70 L 315.90 132.60 L 316.70 133.20 L 317.70 133.40 L 325.60 133.40 L 325.80 129.40 L 325.40 125.60 L 324.60 123.90 L 323.10 122.30" fill="#d7bde2" fill-rule="evenodd" group-id="1" id="Fill-13" node-id="50" stroke="none" target-height="30.199997" target-width="11.299988" target-x="315.5" target-y="103.2"></path><g node-id="270"><g node-id="284"><path d="M 325.20 103.20 L 325.90 107.70 L 325.80 109.10 L 324.90 110.80 L 323.70 111.90 L 325.40 112.90 L 325.70 113.50 L 325.60 114.30 L 322.70 115.30 L 322.30 116.60 L 323.10 117.80 L 325.70 119.10 L 326.80 120.50 L 323.10 122.30 L 324.60 123.90 L 325.40 125.60 L 325.80 129.40 L 325.60 133.40 L 333.10 133.40 L 334.20 133.20 L 334.90 132.60 L 335.30 131.70 L 335.20 130.60 L 327.40 104.80 L 326.60 103.60 L 325.20 103.20" fill="url(#linearGradient-7)" fill-rule="evenodd" group-id="1,4,18" id="Fill-15" node-id="55" stroke="none" target-height="30.199997" target-width="13" target-x="322.3" target-y="103.2"></path></g></g><path d="M 322.90 135.40 L 328.00 135.40 L 328.00 133.20 L 322.90 133.20 Z" fill="url(#linearGradient-8)" fill-rule="evenodd" group-id="1" id="Fill-17" node-id="56" stroke="none" target-height="2.199997" target-width="5.100006" target-x="322.9" target-y="133.2"></path><path d="M 390.60 187.00 L 383.60 185.50 L 382.20 184.80 L 381.40 183.80 L 381.30 183.00 L 381.50 182.00 L 383.20 179.20 L 384.80 177.90 L 388.70 175.90 L 384.10 169.90 L 382.40 167.00 L 381.40 164.30 L 381.20 162.50 L 381.50 160.60 L 382.30 158.60 L 383.60 156.90 L 389.20 152.10 L 389.90 149.90 L 389.60 149.00 L 388.60 147.70 L 384.70 143.70 L 384.10 142.50 L 383.60 139.50 L 383.60 136.70 L 384.10 133.80 L 386.20 125.30 L 386.40 122.50 L 386.10 119.80 L 384.70 119.40 L 381.70 119.70 L 380.30 120.50 L 379.30 121.70 L 378.50 123.30 L 359.40 188.20 L 359.20 189.90 L 359.50 191.60 L 360.30 193.00 L 361.50 194.20 L 363.00 195.00 L 364.70 195.20 L 382.50 195.20 L 383.40 193.60 L 389.50 188.70 L 390.60 187.00" fill="#d7bde2" fill-rule="evenodd" group-id="1" id="Fill-19" node-id="57" stroke="none" target-height="75.799995" target-width="31.399994" target-x="359.2" target-y="119.4"></path><g node-id="271"><g node-id="286"><path d="M 384.10 142.50 L 385.50 144.80 L 389.60 149.00 L 389.80 150.70 L 388.70 152.70 L 385.60 154.90 L 383.60 156.90 L 382.30 158.60 L 381.50 160.60 L 381.20 162.50 L 381.40 164.30 L 382.40 167.00 L 384.10 169.90 L 388.70 175.90 L 384.80 177.90 L 383.20 179.20 L 381.50 182.00 L 381.30 183.00 L 381.40 183.80 L 382.20 184.80 L 383.60 185.50 L 390.60 187.00 L 389.50 188.70 L 383.40 193.60 L 382.50 195.20 L 403.50 195.20 L 405.30 195.00 L 406.70 194.20 L 407.90 193.00 L 408.70 191.50 L 409.00 189.90 L 408.80 188.10 L 389.10 123.30 L 388.40 121.70 L 387.40 120.60 L 386.10 119.80 L 386.40 122.50 L 386.20 125.30 L 383.60 136.70 L 383.60 139.50 L 384.10 142.50" fill="url(#linearGradient-11)" fill-rule="evenodd" group-id="1,5,20" id="Fill-21" node-id="62" stroke="none" target-height="75.399994" target-width="27.799988" target-x="381.2" target-y="119.8"></path></g></g><path d="M 377.80 200.10 L 390.50 200.10 L 390.50 194.60 L 377.80 194.60 Z" fill="url(#linearGradient-12)" fill-rule="evenodd" group-id="1" id="Fill-23" node-id="63" stroke="none" target-height="5.5" target-width="12.700012" target-x="377.8" target-y="194.6"></path><path d="M 352.40 144.00 L 347.90 143.00 L 346.50 141.90 L 346.40 141.10 L 347.60 139.00 L 348.60 138.10 L 351.20 136.80 L 347.10 131.00 L 346.50 129.30 L 346.50 126.90 L 347.90 124.50 L 351.20 121.80 L 351.90 120.30 L 351.80 119.40 L 348.80 116.30 L 348.20 115.20 L 347.80 112.70 L 348.10 110.20 L 349.70 102.80 L 349.50 100.50 L 348.10 100.20 L 346.60 100.50 L 345.10 101.70 L 332.10 145.90 L 332.80 147.90 L 334.50 149.10 L 347.10 149.30 L 347.80 148.30 L 351.70 145.10 L 352.40 144.00" fill="#d7bde2" fill-rule="evenodd" group-id="1" id="Fill-25" node-id="64" stroke="none" target-height="49.100006" target-width="20.299988" target-x="332.1" target-y="100.2"></path><g node-id="272"><g node-id="288"><path d="M 348.20 115.20 L 348.80 116.30 L 351.80 119.40 L 351.90 120.30 L 351.20 121.80 L 349.20 123.20 L 347.00 125.60 L 346.50 126.90 L 346.50 129.30 L 348.20 132.90 L 351.20 136.80 L 348.60 138.10 L 347.60 139.00 L 346.40 141.10 L 346.50 141.90 L 347.90 143.00 L 352.40 144.00 L 351.70 145.10 L 347.80 148.30 L 347.10 149.30 L 361.90 149.10 L 362.90 148.70 L 364.10 146.90 L 364.20 144.70 L 351.00 101.70 L 349.50 100.50 L 349.70 102.80 L 348.10 110.20 L 347.80 112.70 L 348.20 115.20" fill="url(#linearGradient-15)" fill-rule="evenodd" group-id="1,6,22" id="Fill-27" node-id="69" stroke="none" target-height="48.800003" target-width="17.800018" target-x="346.4" target-y="100.5"></path></g></g><path d="M 344.10 152.50 L 352.30 152.50 L 352.30 148.90 L 344.10 148.90 Z" fill="url(#linearGradient-16)" fill-rule="evenodd" group-id="1" id="Fill-29" node-id="70" stroke="none" target-height="3.600006" target-width="8.199982" target-x="344.1" target-y="148.9"></path><g node-id="273"><path d="M 207.70 207.10 L 207.50 213.30 L 206.80 219.30 L 205.60 225.20 L 203.90 230.90 L 201.80 236.40 L 199.30 241.70 L 196.50 246.70 L 193.20 251.50 L 189.60 256.10 L 185.70 260.30 L 181.50 264.20 L 176.90 267.80 L 172.10 271.00 L 167.10 273.90 L 161.80 276.40 L 156.30 278.50 L 150.60 280.10 L 144.80 281.30 L 138.70 282.10 L 132.50 282.30 L 126.20 282.10 L 120.20 281.30 L 114.40 280.10 L 108.70 278.50 L 103.20 276.40 L 97.90 273.90 L 92.90 271.00 L 88.00 267.80 L 83.50 264.20 L 79.30 260.30 L 75.40 256.10 L 71.80 251.50 L 68.50 246.70 L 65.60 241.70 L 63.20 236.40 L 61.10 230.90 L 59.40 225.20 L 58.20 219.30 L 57.50 213.30 L 57.20 207.10 L 57.50 200.80 L 58.20 194.80 L 59.40 188.90 L 61.10 183.30 L 63.20 177.70 L 65.60 172.50 L 68.50 167.40 L 71.80 162.60 L 75.40 158.10 L 79.30 153.90 L 83.50 149.90 L 88.00 146.30 L 92.90 143.10 L 97.90 140.20 L 103.20 137.70 L 108.70 135.60 L 114.40 134.00 L 120.20 132.80 L 126.20 132.10 L 132.50 131.80 L 138.70 132.10 L 144.80 132.80 L 150.60 134.00 L 156.30 135.60 L 161.80 137.70 L 167.10 140.20 L 172.10 143.10 L 176.90 146.30 L 181.50 149.90 L 185.70 153.90 L 189.60 158.10 L 193.20 162.60 L 196.50 167.40 L 199.30 172.50 L 201.80 177.70 L 203.90 183.30 L 205.60 188.90 L 206.80 194.80 L 207.50 200.80 L 207.70 207.10" fill="#d7bde2" fill-rule="evenodd" group-id="1,7" id="Fill-31" node-id="72" stroke="none" target-height="150.49998" target-width="150.5" target-x="57.2" target-y="131.8"></path><path d="M 123.50 134.90 L 141.50 134.90 L 141.50 114.20 L 123.50 114.20 Z" fill="#d7bde2" fill-rule="evenodd" group-id="1,7" id="Fill-33" node-id="73" stroke="none" target-height="20.699997" target-width="18" target-x="123.5" target-y="114.2"></path><path d="M 148.70 115.80 L 116.30 115.80 L 115.70 115.60 L 115.50 115.00 L 115.50 106.90 L 115.70 106.40 L 116.30 106.10 L 148.70 106.10 L 149.30 106.40 L 149.50 106.90 L 149.50 115.00 L 149.30 115.60 L 148.70 115.80" fill="#d7bde2" fill-rule="evenodd" group-id="1,7" id="Fill-35" node-id="74" stroke="none" target-height="9.700005" target-width="34" target-x="115.5" target-y="106.1"></path><path d="M 174.90 138.50 L 174.20 139.20 L 173.20 139.10 L 159.20 132.80 L 158.50 132.00 L 158.50 131.10 L 164.80 117.30 L 165.50 116.60 L 166.50 116.60 L 180.50 123.00 L 181.20 123.70 L 181.20 124.70 L 174.90 138.50 Z" fill="#d7bde2" fill-rule="evenodd" group-id="1,7" id="Fill-36" node-id="75" stroke="none" target-height="22.599998" target-width="22.699997" target-x="158.5" target-y="116.6"></path><path d="M 168.70 141.80 L 160.10 137.90 L 162.70 132.30 L 171.20 136.20 Z" fill="#d7bde2" fill-rule="evenodd" group-id="1,7" id="Fill-37" node-id="76" stroke="none" target-height="9.5" target-width="11.099991" target-x="160.1" target-y="132.3"></path><path d="M 90.10 138.50 L 90.80 139.20 L 91.80 139.10 L 105.80 132.80 L 106.50 132.00 L 106.50 131.10 L 100.20 117.30 L 99.50 116.60 L 98.50 116.60 L 84.40 123.00 L 83.80 123.70 L 83.80 124.70 L 90.10 138.50 Z" fill="#d7bde2" fill-rule="evenodd" group-id="1,7" id="Fill-38" node-id="77" stroke="none" target-height="22.599998" target-width="22.699997" target-x="83.8" target-y="116.6"></path><path d="M 96.30 141.80 L 104.90 137.90 L 102.30 132.30 L 93.70 136.20 Z" fill="#d7bde2" fill-rule="evenodd" group-id="1,7" id="Fill-39" node-id="78" stroke="none" target-height="9.5" target-width="11.200005" target-x="93.7" target-y="132.3"></path><path d="M 132.50 87.60 L 129.40 87.80 L 123.80 89.30 L 121.30 90.60 L 118.20 92.80 L 115.50 95.40 L 113.30 98.60 L 112.00 101.10 L 110.50 106.70 L 110.30 109.80 L 110.50 112.80 L 112.00 118.40 L 113.30 121.00 L 115.50 124.10 L 118.20 126.70 L 121.30 128.90 L 126.50 131.20 L 129.40 131.80 L 132.50 132.00 L 138.40 131.20 L 143.70 128.90 L 146.80 126.70 L 149.50 124.10 L 151.70 121.00 L 153.00 118.40 L 154.50 112.80 L 154.70 109.80 L 154.50 106.70 L 153.00 101.10 L 151.70 98.60 L 149.50 95.40 L 146.80 92.80 L 143.70 90.60 L 141.10 89.30 L 135.60 87.80 L 132.50 87.60 M 132.50 140.60 L 128.30 140.30 L 124.30 139.50 L 120.50 138.20 L 116.90 136.40 L 113.70 134.20 L 110.70 131.60 L 108.10 128.60 L 105.90 125.30 L 104.10 121.80 L 102.80 118.00 L 102.00 114.00 L 101.70 109.80 L 102.00 105.50 L 102.80 101.60 L 104.10 97.80 L 105.90 94.20 L 108.10 91.00 L 110.70 88.00 L 113.70 85.40 L 116.90 83.20 L 120.50 81.40 L 124.30 80.10 L 128.30 79.20 L 132.50 78.90 L 136.70 79.20 L 140.70 80.10 L 144.50 81.40 L 148.10 83.20 L 151.30 85.40 L 154.30 88.00 L 156.90 91.00 L 159.10 94.20 L 160.90 97.80 L 162.20 101.60 L 163.00 105.50 L 163.30 109.80 L 163.00 114.00 L 162.20 118.00 L 160.90 121.80 L 159.10 125.30 L 156.90 128.60 L 154.30 131.60 L 151.30 134.20 L 148.10 136.40 L 144.50 138.20 L 140.70 139.50 L 136.70 140.30 L 132.50 140.60" fill="#d7bde2" fill-rule="evenodd" group-id="1,7" id="Fill-40" node-id="79" stroke="none" target-height="61.700005" target-width="61.600006" target-x="101.7" target-y="78.9"></path><path d="M 196.50 207.10 L 196.30 212.50 L 195.70 217.60 L 194.60 222.60 L 191.40 232.20 L 186.90 241.00 L 184.10 245.10 L 177.70 252.60 L 170.20 259.00 L 166.10 261.80 L 157.30 266.40 L 147.70 269.60 L 142.70 270.60 L 137.60 271.20 L 132.20 271.40 L 126.90 271.20 L 121.70 270.60 L 116.70 269.60 L 111.90 268.20 L 102.70 264.20 L 98.40 261.80 L 90.40 255.90 L 83.40 249.00 L 80.30 245.10 L 75.10 236.70 L 71.20 227.50 L 69.80 222.60 L 68.80 217.60 L 68.20 212.50 L 67.90 207.10 L 68.20 201.80 L 68.80 196.70 L 69.80 191.70 L 71.20 186.80 L 75.10 177.60 L 77.60 173.30 L 83.40 165.30 L 90.40 158.40 L 94.30 155.30 L 102.70 150.10 L 107.20 147.90 L 116.70 144.70 L 121.70 143.70 L 126.90 143.10 L 132.20 142.90 L 137.60 143.10 L 142.70 143.70 L 147.70 144.70 L 157.30 147.90 L 166.10 152.50 L 170.20 155.30 L 177.70 161.70 L 184.10 169.20 L 186.90 173.30 L 191.40 182.10 L 194.60 191.70 L 195.70 196.70 L 196.30 201.80 L 196.50 207.10" fill="#f5eef8" fill-rule="evenodd" group-id="1,7" id="Fill-41" node-id="80" stroke="none" target-height="128.5" target-width="128.6" target-x="67.9" target-y="142.9"></path><path d="M 138.10 207.10 L 137.90 208.80 L 136.40 211.30 L 133.80 212.80 L 132.20 213.10 L 129.20 212.30 L 127.10 210.10 L 126.50 208.80 L 126.30 207.10 L 127.10 204.20 L 129.20 202.00 L 132.20 201.20 L 133.80 201.50 L 136.40 203.00 L 137.90 205.50 L 138.10 207.10" fill="#d7bde2" fill-rule="evenodd" group-id="1,7" id="Fill-42" node-id="81" stroke="none" target-height="11.900009" target-width="11.800003" target-x="126.3" target-y="201.2"></path><path d="M 170.00 177.40 L 140.90 215.30 L 140.60 215.30 L 126.10 196.40 L 170.00 177.40 Z" fill="#d7bde2" fill-rule="evenodd" group-id="1,7" id="Fill-43" node-id="82" stroke="none" target-height="37.90001" target-width="43.9" target-x="126.1" target-y="177.4"></path><path d="M 420.10 215.50 L 370.90 215.60 L 369.70 216.50 L 369.30 217.20 L 365.80 227.30 L 355.20 194.30 L 354.80 193.50 L 353.50 192.70 L 351.90 192.80 L 350.70 193.80 L 350.40 194.50 L 340.30 245.60 L 333.30 218.40 L 333.00 217.70 L 331.70 216.70 L 276.50 216.50 L 276.40 221.40 L 329.00 221.40 L 338.30 257.20 L 339.20 258.50 L 340.70 259.00 L 342.20 258.40 L 343.10 257.00 L 353.40 204.70 L 363.40 235.70 L 364.30 237.00 L 365.70 237.40 L 367.10 237.00 L 368.00 235.80 L 373.30 220.40 L 419.40 220.40 L 420.10 215.50" fill="#ffffff" fill-rule="evenodd" group-id="1,7" id="Fill-45" node-id="83" stroke="none" target-height="66.3" target-width="143.70001" target-x="276.4" target-y="192.7"></path><path d="M 186.10 216.50 L 184.70 217.00 L 183.80 218.10 L 180.30 228.30 L 169.60 195.30 L 169.30 194.50 L 168.00 193.70 L 167.20 193.60 L 165.70 194.20 L 164.90 195.50 L 154.80 246.60 L 147.80 219.40 L 147.40 218.60 L 146.20 217.70 L 68.80 217.60 L 69.80 222.40 L 143.50 222.40 L 152.80 258.20 L 153.70 259.50 L 155.10 260.00 L 156.70 259.40 L 157.50 258.00 L 167.90 205.70 L 177.90 236.70 L 178.70 237.90 L 180.20 238.40 L 181.60 238.00 L 182.50 236.80 L 187.80 221.40 L 278.80 221.40 L 278.90 216.50 L 186.10 216.50 Z" fill="#d7bde2" fill-rule="evenodd" group-id="1,7" id="Fill-46" node-id="84" stroke="none" target-height="66.399994" target-width="210.09999" target-x="68.8" target-y="193.6"></path><path d="M 339.20 455.80 L 335.00 457.70 L 330.90 459.00 L 326.60 459.50 L 10.20 459.50 L 10.20 445.70 L 320.50 445.70 L 328.10 444.90 L 339.10 442.50 L 339.20 455.80 Z" fill="#c6c6c6" fill-rule="evenodd" group-id="1,7" id="Fill-48" node-id="85" stroke="none" target-height="17" target-width="329" target-x="10.2" target-y="442.5"></path></g><g node-id="274"><g node-id="290"><path d="M 339.60 442.20 L 335.60 443.40 L 328.90 444.80 L 329.30 459.30 L 333.60 458.40 L 337.10 457.20 L 475.10 403.70 L 475.10 389.90 L 339.60 442.20 Z" fill="#d8d8d8" fill-rule="evenodd" group-id="1,8,24" id="Fill-49" node-id="90" stroke="none" target-height="69.399994" target-width="146.20001" target-x="328.9" target-y="389.9"></path></g></g><g node-id="275"><g node-id="292"><path d="M 332.00 445.30 L 332.00 459.20 L 378.10 441.30 L 378.10 427.40 Z" fill="#000000" fill-opacity="0.023949033" fill-rule="evenodd" group-id="1,9,26" id="Fill-51" node-id="95" stroke="none" target-height="31.800018" target-width="46.100006" target-x="332" target-y="427.4"></path></g></g><path d="M 340.10 442.00 L 330.30 444.60 L 320.20 445.70 L 14.40 445.70 L 11.60 445.40 L 10.40 445.00 L 10.00 444.60 L 10.20 444.00 L 11.10 443.20 L 13.80 442.00 L 145.30 391.80 L 155.10 389.20 L 165.10 388.10 L 470.90 388.10 L 473.80 388.40 L 475.00 388.80 L 475.30 389.20 L 475.20 389.80 L 474.20 390.60 L 471.60 391.80 L 340.10 442.00 Z" fill="#e8e8e6" fill-rule="evenodd" group-id="1" id="Fill-53" node-id="96" stroke="none" target-height="57.600006" target-width="465.3" target-x="10" target-y="388.1"></path><g node-id="276"><g node-id="294"><path d="M 159.70 393.30 L 46.60 436.40 L 310.30 436.40 L 423.40 393.30 Z" fill="#4c5bea" fill-rule="evenodd" group-id="1,10,28" id="Fill-55" node-id="101" stroke="none" target-height="43.100006" target-width="376.8" target-x="46.6" target-y="393.3"></path></g></g><g node-id="277"><path d="M 391.80 415.00 L 391.50 415.60 L 389.10 416.90 L 384.70 417.60 L 382.10 417.70 L 377.10 417.30 L 373.60 416.30 L 372.60 415.60 L 372.30 415.00 L 372.60 414.30 L 375.10 413.10 L 379.40 412.40 L 382.10 412.30 L 384.70 412.40 L 389.10 413.10 L 391.50 414.30 L 391.80 415.00" fill="#7c95a5" fill-rule="evenodd" group-id="1,11" id="Fill-57" node-id="103" stroke="none" target-height="5.4000244" target-width="19.5" target-x="372.3" target-y="412.3"></path><path d="M 354.20 408.40 L 344.40 411.00 L 334.30 412.00 L 28.50 412.00 L 25.70 411.80 L 24.50 411.40 L 24.10 411.00 L 24.30 410.40 L 25.30 409.60 L 27.90 408.40 L 159.40 358.20 L 169.20 355.60 L 179.20 354.50 L 485.00 354.50 L 487.90 354.70 L 489.10 355.10 L 489.40 355.60 L 489.30 356.10 L 488.30 356.90 L 485.70 358.20 L 354.20 408.40 Z" fill="#d7bde2" fill-rule="evenodd" group-id="1,11" id="Fill-59" node-id="104" stroke="none" target-height="57.5" target-width="465.3" target-x="24.1" target-y="354.5"></path><g node-id="295"><path d="M 120.70 396.40 L 94.70 396.40 L 94.20 396.20 L 94.60 395.70 L 95.80 395.30 L 122.30 395.10 L 122.90 395.30 L 122.70 395.70 L 120.70 396.40" fill="#ffffff" fill-rule="evenodd" group-id="1,11,29" id="Fill-61" node-id="106" stroke="none" target-height="1.2999878" target-width="28.700005" target-x="94.2" target-y="395.1"></path><path d="M 116.50 398.90 L 89.20 398.90 L 88.70 398.80 L 89.10 398.30 L 90.30 397.90 L 118.10 397.70 L 118.70 397.90 L 118.50 398.30 L 116.50 398.90" fill="#ffffff" fill-rule="evenodd" group-id="1,11,29" id="Fill-63" node-id="107" stroke="none" target-height="1.1999817" target-width="30" target-x="88.7" target-y="397.7"></path><path d="M 112.30 401.50 L 83.80 401.50 L 83.20 401.30 L 84.80 400.50 L 113.90 400.30 L 114.60 400.50 L 114.40 400.90 L 112.30 401.50" fill="#ffffff" fill-rule="evenodd" group-id="1,11,29" id="Fill-65" node-id="108" stroke="none" target-height="1.2000122" target-width="31.400002" target-x="83.2" target-y="400.3"></path><path d="M 313.40 401.50 L 287.40 401.50 L 286.90 401.40 L 287.40 400.90 L 288.50 400.50 L 315.10 400.30 L 315.60 400.50 L 315.40 400.90 L 313.40 401.50" fill="#ffffff" fill-rule="evenodd" group-id="1,11,29" id="Fill-67" node-id="109" stroke="none" target-height="1.2000122" target-width="28.700012" target-x="286.9" target-y="400.3"></path><path d="M 209.80 401.50 L 182.60 401.50 L 182.00 401.30 L 182.50 400.90 L 183.60 400.50 L 211.50 400.30 L 212.10 400.50 L 211.90 400.90 L 209.80 401.50" fill="#ffffff" fill-rule="evenodd" group-id="1,11,29" id="Fill-69" node-id="110" stroke="none" target-height="1.2000122" target-width="30.100006" target-x="182" target-y="400.3"></path><path d="M 160.30 401.50 L 131.80 401.50 L 131.20 401.30 L 132.80 400.50 L 161.90 400.30 L 162.60 400.50 L 162.40 400.90 L 160.30 401.50" fill="#ffffff" fill-rule="evenodd" group-id="1,11,29" id="Fill-71" node-id="111" stroke="none" target-height="1.2000122" target-width="31.40001" target-x="131.2" target-y="400.3"></path><path d="M 261.80 401.50 L 234.60 401.50 L 234.00 401.30 L 234.50 400.90 L 235.60 400.50 L 263.50 400.30 L 264.10 400.50 L 263.90 400.90 L 261.80 401.50" fill="#ffffff" fill-rule="evenodd" group-id="1,11,29" id="Fill-73" node-id="112" stroke="none" target-height="1.2000122" target-width="30.100006" target-x="234" target-y="400.3"></path></g><path d="M 201.40 144.70 L 199.90 149.50 L 199.40 153.60 L 199.80 157.20 L 200.50 159.30 L 201.40 160.80 L 203.20 161.80 L 200.20 165.80 L 198.90 167.20 L 196.60 168.60 L 195.00 168.40 L 192.60 166.00 L 191.40 162.70 L 193.30 161.40 L 195.10 159.20 L 195.50 157.60 L 195.70 149.00 L 201.40 144.70 Z" fill="#f9cec3" fill-rule="evenodd" group-id="1,11" id="Fill-79" node-id="113" stroke="none" target-height="23.90001" target-width="11.800003" target-x="191.4" target-y="144.7"></path><path d="M 205.60 118.30 L 207.30 116.40 L 208.30 114.50 L 210.80 107.00 L 212.40 105.40 L 213.70 104.70 L 216.90 104.30 L 219.50 104.40 L 223.70 105.00 L 232.70 107.30 L 235.20 107.70 L 237.60 107.70 L 240.80 106.90 L 245.50 104.40 L 248.90 103.20 L 252.50 102.40 L 256.40 102.00 L 260.20 102.20 L 263.90 102.90 L 268.50 104.80 L 273.30 108.80 L 275.90 111.70 L 278.10 114.70 L 279.80 117.80 L 280.60 119.90 L 281.00 123.80 L 280.50 125.60 L 279.60 127.30 L 278.10 129.00 L 273.60 131.90 L 269.90 133.40 L 261.90 135.80 L 257.00 136.70 L 246.70 137.80 L 241.20 138.00 L 230.10 137.20 L 224.50 136.30 L 219.10 134.80 L 212.10 131.90 L 208.30 129.90 L 206.30 128.50 L 203.70 125.60 L 203.00 122.90 L 203.20 121.50 L 204.10 120.00 L 205.60 118.30 Z" fill="#38180c" fill-rule="evenodd" group-id="1,11" id="Fill-75" node-id="114" stroke="none" target-height="36" target-width="78" target-x="203" target-y="102"></path><path d="M 195.60 127.90 L 192.80 129.00 L 189.30 131.40 L 187.00 134.70 L 186.20 138.30 L 186.40 148.70 L 187.50 152.30 L 189.30 154.00 L 190.60 154.30 L 193.60 154.00 L 195.90 153.00 L 198.30 151.50 L 202.30 147.60 L 203.80 145.40 L 204.50 143.50 L 204.90 140.90 L 205.10 138.00 L 204.50 132.50 L 203.70 130.20 L 202.80 128.80 L 201.70 128.10 L 199.00 127.70 L 194.00 128.50 L 195.60 127.90 Z" fill="#ffd6cb" fill-rule="evenodd" group-id="1,11" id="Fill-77" node-id="115" stroke="none" target-height="26.600006" target-width="18.90001" target-x="186.2" target-y="127.7"></path><path d="M 203.70 244.60 L 195.80 280.00 L 193.30 292.30 L 190.90 306.30 L 189.60 335.70 L 187.70 369.20 L 187.10 374.30 L 184.80 384.40 L 184.50 386.60 L 185.10 388.80 L 185.80 389.10 L 186.80 389.00 L 187.70 388.60 L 190.00 385.80 L 193.70 378.30 L 197.60 368.20 L 204.80 346.30 L 206.10 341.40 L 206.80 337.10 L 207.20 318.40 L 207.70 315.00 L 208.80 311.70 L 215.20 300.00 L 222.30 284.20 L 227.70 268.70 L 229.20 261.00 L 229.20 257.80 L 228.50 254.20 L 227.40 250.50 L 224.40 243.30 L 219.00 233.50 L 203.70 244.60 Z" fill="#ffd6cb" fill-rule="evenodd" group-id="1,11" id="Fill-81" node-id="116" stroke="none" target-height="155.6" target-width="44.699997" target-x="184.5" target-y="233.5"></path><path d="M 179.10 239.10 L 177.20 251.30 L 175.20 274.50 L 175.20 284.40 L 175.90 296.20 L 177.00 304.50 L 178.70 308.20 L 181.90 310.90 L 184.00 312.00 L 186.20 312.60 L 188.20 312.60 L 190.60 311.50 L 191.60 310.30 L 193.20 305.40 L 197.80 282.90 L 204.40 245.10 L 179.10 239.10 Z" fill="#ffd6cb" fill-rule="evenodd" group-id="1,11" id="Fill-83" node-id="117" stroke="none" target-height="73.5" target-width="29.199997" target-x="175.2" target-y="239.1"></path><path d="M 165.40 194.10 L 164.90 194.80 L 164.50 198.30 L 164.70 202.40 L 165.70 203.40 L 168.90 204.10 L 170.10 202.90 L 171.20 200.10 L 171.30 194.80 L 171.00 194.30 L 170.40 194.10 L 165.40 194.10" fill="#ffd6cb" fill-rule="evenodd" group-id="1,11" id="Fill-85" node-id="118" stroke="none" target-height="10" target-width="6.800003" target-x="164.5" target-y="194.1"></path><path d="M 165.90 197.00 L 171.40 195.80 L 175.70 194.40 L 178.50 192.70 L 181.50 184.60 L 185.90 168.10 L 186.60 166.20 L 187.40 165.20 L 187.80 166.30 L 187.70 170.30 L 186.20 188.10 L 185.70 190.90 L 184.20 194.60 L 181.80 197.10 L 178.10 199.10 L 171.70 201.00 L 169.30 201.10 L 167.40 200.90 L 165.40 199.90 L 165.90 197.00 Z" fill="#ffd6cb" fill-rule="evenodd" group-id="1,11" id="Fill-87" node-id="119" stroke="none" target-height="35.90001" target-width="22.40001" target-x="165.4" target-y="165.2"></path><path d="M 187.90 131.80 L 192.80 129.70 L 194.70 129.20 L 197.80 129.40 L 199.90 130.80 L 204.90 136.30 L 208.10 138.80 L 209.50 137.40 L 211.40 133.80 L 212.60 129.60 L 212.70 127.70 L 212.30 126.40 L 209.60 123.00 L 207.60 121.30 L 205.10 120.10 L 203.20 119.60 L 201.10 119.50 L 198.60 119.90 L 196.30 120.80 L 194.20 122.00 L 192.40 123.70 L 190.70 125.80 L 189.20 128.50 L 187.90 131.80 Z" fill="#38180c" fill-rule="evenodd" group-id="1,11" id="Fill-89" node-id="120" stroke="none" target-height="19.300003" target-width="24.800003" target-x="187.9" target-y="119.5"></path><path d="M 188.70 132.40 L 189.80 131.10 L 191.10 130.60 L 192.80 130.50 L 195.70 131.20 L 197.20 131.80 L 199.50 133.90 L 200.80 135.90 L 201.70 138.10 L 203.50 144.10 L 204.00 144.30 L 205.10 143.80 L 206.20 142.80 L 207.50 140.10 L 207.30 137.30 L 206.20 134.70 L 202.90 130.30 L 201.00 128.60 L 197.20 126.60 L 195.60 126.30 L 193.70 126.40 L 191.90 127.00 L 190.20 128.20 L 188.60 130.20 L 188.00 132.00 L 188.70 132.40" fill="#dcdce6" fill-rule="evenodd" group-id="1,11" id="Fill-91" node-id="121" stroke="none" target-height="18" target-width="19.5" target-x="188" target-y="126.3"></path><path d="M 186.50 368.50 L 184.00 381.40 L 180.60 393.00 L 180.00 396.10 L 180.30 397.50 L 181.00 398.40 L 183.30 399.30 L 185.00 399.20 L 186.90 397.00 L 192.20 387.10 L 195.20 378.70 L 196.60 372.00 L 196.50 371.10 L 195.30 370.00 L 193.90 369.50 L 186.50 368.50" fill="#e8e8e6" fill-rule="evenodd" group-id="1,11" id="Fill-93" node-id="122" stroke="none" target-height="30.799988" target-width="16.600006" target-x="180" target-y="368.5"></path><path d="M 219.70 291.50 L 216.50 301.50 L 215.90 304.70 L 215.10 313.30 L 213.70 317.50 L 212.80 318.80 L 212.00 319.20 L 211.40 318.90 L 210.70 318.00 L 209.80 315.30 L 209.00 311.40 L 219.70 291.50 Z" fill="#e8e8e6" fill-rule="evenodd" group-id="1,11" id="Fill-95" node-id="123" stroke="none" target-height="27.700012" target-width="10.699997" target-x="209" target-y="291.5"></path><path d="M 198.20 261.50 L 193.20 290.90 L 190.70 308.40 L 191.60 279.90 L 191.10 268.80 L 190.70 267.30 L 188.50 264.20 L 185.50 261.60 L 181.80 259.20 L 193.20 259.80 L 198.70 258.60 L 198.20 261.50 Z" fill="#ecb9ab" fill-rule="evenodd" group-id="1,11" id="Fill-97" node-id="124" stroke="none" target-height="49.799988" target-width="16.899994" target-x="181.8" target-y="258.6"></path><path d="M 204.30 261.00 L 213.50 259.80 L 218.20 258.10 L 219.50 257.10 L 221.40 254.50 L 223.70 250.70 L 229.00 259.10 L 222.90 239.10 L 204.30 261.00 Z" fill="#ecb9ab" fill-rule="evenodd" group-id="1,11" id="Fill-99" node-id="125" stroke="none" target-height="21.899994" target-width="24.699997" target-x="204.3" target-y="239.1"></path><path d="M 179.40 231.90 L 174.90 242.90 L 173.50 248.20 L 173.40 250.40 L 173.70 252.20 L 174.30 253.80 L 176.70 256.50 L 178.40 257.60 L 181.20 258.90 L 184.60 260.00 L 188.10 260.60 L 191.40 260.50 L 194.40 260.00 L 198.70 258.60 L 198.70 259.70 L 199.20 260.30 L 202.10 261.00 L 208.60 260.40 L 210.90 259.80 L 214.70 257.60 L 217.00 255.30 L 218.80 252.80 L 221.40 247.50 L 223.10 241.50 L 224.80 248.20 L 227.60 256.30 L 229.30 259.40 L 229.90 259.90 L 230.70 259.80 L 230.70 257.30 L 229.00 250.80 L 226.20 242.30 L 219.80 224.90 L 181.70 228.20 L 179.40 231.90 Z" fill="#e53b2f" fill-rule="evenodd" group-id="1,11" id="Fill-101" node-id="126" stroke="none" target-height="36.100006" target-width="57.300003" target-x="173.4" target-y="224.9"></path><path d="M 190.90 160.80 L 185.70 163.40 L 184.90 169.60 L 184.10 172.10 L 182.20 175.60 L 181.80 177.10 L 182.00 181.70 L 183.60 191.60 L 183.90 198.10 L 179.80 229.00 L 196.00 228.00 L 212.30 226.50 L 217.50 225.70 L 222.90 224.00 L 226.20 222.50 L 221.60 217.70 L 215.50 210.30 L 212.40 204.90 L 211.60 202.60 L 210.20 195.30 L 208.30 178.40 L 208.10 173.20 L 209.60 162.10 L 202.90 160.60 L 199.50 164.70 L 197.20 166.20 L 196.30 166.30 L 195.00 165.80 L 193.70 164.70 L 190.90 160.80" fill="#ffffff" fill-rule="evenodd" group-id="1,11" id="Fill-103" node-id="127" stroke="none" target-height="68.399994" target-width="46.399994" target-x="179.8" target-y="160.6"></path><path d="M 209.40 163.00 L 215.00 171.00 L 222.00 182.00 L 225.10 188.40 L 225.50 190.40 L 225.40 192.60 L 223.50 197.80 L 217.60 208.20 L 216.10 213.80 L 214.90 216.00 L 214.00 216.60 L 211.70 216.40 L 208.00 214.60 L 207.20 213.90 L 207.00 211.90 L 207.80 208.20 L 209.20 206.40 L 211.10 205.20 L 212.40 204.90 L 214.00 203.20 L 217.70 197.00 L 219.20 192.90 L 219.20 191.70 L 217.70 188.70 L 207.80 173.30 L 209.40 163.00 Z" fill="#ffd6cb" fill-rule="evenodd" group-id="1,11" id="Fill-105" node-id="128" stroke="none" target-height="53.600006" target-width="18.5" target-x="207" target-y="163"></path><path d="M 181.40 229.20 L 220.80 227.80 L 219.80 224.90 Z" fill="#c92c28" fill-rule="evenodd" group-id="1,11" id="Fill-107" node-id="129" stroke="none" target-height="4.300003" target-width="39.40001" target-x="181.4" target-y="224.9"></path><path d="M 189.20 244.70 L 196.80 251.00 L 198.70 258.60 L 195.70 259.20 L 196.30 256.00 L 196.00 253.20 L 195.30 251.90 L 191.10 247.80 L 189.20 245.40 L 188.60 244.30 L 189.20 244.70 Z" fill="#c92c28" fill-rule="evenodd" group-id="1,11" id="Fill-109" node-id="130" stroke="none" target-height="14.900009" target-width="10.099991" target-x="188.6" target-y="244.3"></path><path d="M 184.40 181.10 L 186.20 181.30 L 187.80 180.90 L 191.60 179.20 L 198.00 181.80 L 201.50 182.60 L 201.40 183.60 L 200.90 184.30 L 199.30 185.40 L 197.50 185.30 L 194.60 183.00 L 192.60 182.20 L 186.70 183.70 L 185.50 183.70 L 184.40 183.40 L 183.60 182.60 L 183.30 181.30 L 184.40 181.10" fill="#d8dbe7" fill-rule="evenodd" group-id="1,11" id="Fill-111" node-id="131" stroke="none" target-height="6.199997" target-width="18.199997" target-x="183.3" target-y="179.2"></path></g><g node-id="278"><path d="M 284.40 143.00 L 283.60 153.60 L 283.80 156.30 L 285.20 157.20 L 291.50 157.80 L 289.10 141.80 L 284.40 143.00 Z" fill="#f9cec3" fill-rule="evenodd" group-id="1,12" id="Fill-122" node-id="133" stroke="none" target-height="16" target-width="7.899994" target-x="283.6" target-y="141.8"></path><path d="M 265.20 172.40 L 266.70 176.30 L 267.50 179.80 L 267.60 181.50 L 265.80 188.00 L 266.00 189.00 L 268.60 194.30 L 269.80 199.60 L 273.00 194.90 L 274.80 189.80 L 276.20 181.50 L 276.10 179.10 L 275.70 176.80 L 274.60 174.80 L 273.40 173.60 L 271.90 172.80 L 268.70 171.80 L 266.00 171.50 L 264.80 171.50 L 265.20 172.40 Z" fill="#4f71ed" fill-rule="evenodd" group-id="1,12" id="Fill-116" node-id="134" stroke="none" target-height="28.100006" target-width="11.400024" target-x="264.8" target-y="171.5"></path><path d="M 273.00 195.20 L 264.30 196.70 L 261.80 197.90 L 261.20 198.90 L 260.80 200.80 L 260.80 205.40 L 261.90 209.80 L 262.50 210.90 L 263.90 212.10 L 267.50 212.30 L 269.20 211.80 L 270.70 210.80 L 272.00 208.60 L 272.50 203.10 L 273.60 200.50 L 273.00 195.20 Z" fill="#ffd6cb" fill-rule="evenodd" group-id="1,12" id="Fill-118" node-id="135" stroke="none" target-height="17.100006" target-width="12.800018" target-x="260.8" target-y="195.2"></path><path d="M 286.80 112.30 L 282.20 124.30 L 280.40 130.50 L 279.70 135.60 L 279.90 139.10 L 280.50 142.10 L 281.30 143.90 L 282.30 145.20 L 283.50 146.20 L 285.00 146.80 L 286.80 147.00 L 289.10 146.60 L 290.80 145.90 L 294.40 143.30 L 296.80 140.80 L 299.00 137.70 L 300.80 134.50 L 302.10 131.30 L 302.90 128.10 L 303.00 125.60 L 302.60 123.00 L 301.50 119.90 L 300.00 116.90 L 298.10 114.20 L 296.60 112.60 L 294.90 111.50 L 293.10 110.80 L 291.20 110.60 L 289.10 111.10 L 286.80 112.30" fill="#ffd6cb" fill-rule="evenodd" group-id="1,12" id="Fill-120" node-id="136" stroke="none" target-height="36.4" target-width="23.299988" target-x="279.7" target-y="110.6"></path><path d="M 267.50 152.50 L 278.00 152.00 L 283.80 151.10 L 287.10 151.20 L 294.10 152.70 L 297.70 154.00 L 300.90 155.60 L 304.30 158.20 L 305.40 159.60 L 318.60 182.10 L 333.60 209.00 L 334.90 212.50 L 334.50 213.00 L 332.60 213.60 L 330.30 213.90 L 319.90 214.40 L 305.10 214.30 L 303.60 209.60 L 308.90 208.80 L 313.30 207.70 L 316.80 206.10 L 317.80 204.70 L 317.80 203.90 L 315.90 199.40 L 307.90 184.40 L 303.70 178.10 L 301.80 175.90 L 300.70 175.30 L 288.40 172.00 L 279.60 169.10 L 275.50 167.50 L 270.20 164.90 L 268.40 163.10 L 266.90 158.30 L 266.50 154.00 L 266.70 152.90 L 267.50 152.50" fill="#f9cec3" fill-rule="evenodd" group-id="1,12" id="Fill-124" node-id="137" stroke="none" target-height="63.299988" target-width="68.399994" target-x="266.5" target-y="151.1"></path><path d="M 289.10 259.80 L 302.10 291.10 L 314.60 322.40 L 317.70 327.20 L 325.80 336.70 L 328.10 340.20 L 329.30 342.70 L 330.20 345.50 L 330.70 348.80 L 331.70 370.20 L 332.00 371.90 L 332.50 372.70 L 334.90 367.60 L 337.40 359.90 L 338.40 355.10 L 339.00 349.60 L 339.00 341.80 L 338.50 337.50 L 336.30 328.30 L 331.00 316.00 L 329.00 309.50 L 328.30 305.60 L 327.10 291.10 L 325.40 278.80 L 320.70 252.00 L 316.30 229.70 L 289.10 259.80 Z" fill="#ffd6cb" fill-rule="evenodd" group-id="1,12" id="Fill-126" node-id="138" stroke="none" target-height="143.00002" target-width="49.899994" target-x="289.1" target-y="229.7"></path><path d="M 269.00 232.60 L 260.00 267.80 L 258.00 277.50 L 257.60 283.10 L 268.50 341.10 L 270.30 351.50 L 271.30 361.70 L 271.80 364.10 L 273.00 366.70 L 273.70 367.10 L 274.50 367.00 L 275.00 366.40 L 275.90 363.60 L 277.70 355.10 L 279.50 343.30 L 282.60 316.90 L 283.50 305.80 L 283.60 298.40 L 282.70 291.40 L 280.60 283.20 L 292.30 254.30 L 269.00 232.60 Z" fill="#ffd6cb" fill-rule="evenodd" group-id="1,12" id="Fill-128" node-id="139" stroke="none" target-height="134.5" target-width="34.69998" target-x="257.6" target-y="232.6"></path><path d="M 303.30 180.80 L 318.80 172.00 L 312.00 165.70 L 304.80 157.00 L 303.50 156.20 L 293.30 152.30 L 291.50 154.90 L 290.00 156.30 L 287.40 157.40 L 285.80 157.60 L 284.10 157.40 L 282.70 156.60 L 280.80 154.40 L 278.90 151.20 L 267.30 150.80 L 265.40 151.10 L 263.30 152.50 L 262.00 154.90 L 261.40 165.00 L 260.90 166.90 L 260.00 168.60 L 271.30 175.20 L 272.70 178.20 L 272.80 179.50 L 272.20 181.40 L 270.20 184.20 L 269.50 186.00 L 269.50 190.00 L 271.00 195.70 L 270.90 197.40 L 269.20 205.50 L 269.20 215.90 L 266.90 231.80 L 297.50 237.00 L 308.10 238.50 L 316.90 239.30 L 322.10 239.10 L 326.90 237.60 L 331.50 235.70 L 328.40 235.30 L 324.20 233.60 L 322.20 232.00 L 320.10 228.80 L 314.20 210.50 L 303.30 180.80" fill="#ffffff" fill-rule="evenodd" group-id="1,12" id="Fill-130" node-id="140" stroke="none" target-height="88.5" target-width="71.5" target-x="260" target-y="150.8"></path><path d="M 317.10 175.60 L 320.90 180.20 L 324.10 184.80 L 328.90 193.80 L 333.40 199.50 L 334.50 201.60 L 337.10 210.80 L 337.10 212.10 L 336.70 213.20 L 335.70 214.20 L 333.70 215.40 L 330.80 216.30 L 313.60 218.50 L 308.00 218.60 L 291.20 216.90 L 291.90 207.90 L 296.90 207.20 L 303.50 205.60 L 310.10 205.60 L 310.80 205.10 L 313.70 201.20 L 313.90 200.50 L 313.50 199.70 L 309.90 196.70 L 308.90 195.00 L 307.60 190.90 L 306.40 184.90 L 304.00 180.40 L 315.70 173.80 L 317.10 175.60 Z" fill="#4f71ed" fill-rule="evenodd" group-id="1,12" id="Fill-132" node-id="141" stroke="none" target-height="44.800003" target-width="45.899994" target-x="291.2" target-y="173.8"></path><path d="M 298.20 119.20 L 297.60 122.60 L 298.20 127.80 L 295.40 134.00 L 295.30 134.90 L 295.50 135.10 L 296.00 134.70 L 298.90 129.50 L 300.70 128.60 L 301.30 127.50 L 301.90 121.40 L 298.20 119.20 Z" fill="#333333" fill-rule="evenodd" group-id="1,12" id="Fill-134" node-id="142" stroke="none" target-height="15.900009" target-width="6.600006" target-x="295.3" target-y="119.2"></path><path d="M 305.50 117.90 L 306.50 122.30 L 306.50 126.60 L 305.00 129.60 L 297.90 139.40 L 300.50 130.20 L 300.10 129.00 L 299.50 120.40 L 305.50 117.90 Z" fill="#333333" fill-rule="evenodd" group-id="1,12" id="Fill-138" node-id="143" stroke="none" target-height="21.499992" target-width="8.600006" target-x="297.9" target-y="117.9"></path><path d="M 288.70 96.80 L 294.00 101.80 L 302.60 111.00 L 304.30 113.80 L 305.50 118.30 L 305.20 119.10 L 303.50 120.40 L 301.80 120.70 L 298.70 120.60 L 297.60 120.20 L 293.50 115.80 L 292.00 114.90 L 289.40 114.20 L 286.40 114.20 L 285.50 113.60 L 284.00 111.80 L 283.20 109.90 L 283.00 109.10 L 283.40 104.20 L 284.30 100.20 L 285.00 98.50 L 285.90 97.30 L 287.60 96.60 L 288.70 96.80 Z" fill="#333333" fill-rule="evenodd" group-id="1,12" id="Fill-142" node-id="144" stroke="none" target-height="24.099998" target-width="22.5" target-x="283" target-y="96.6"></path><path d="M 286.40 208.30 L 281.60 206.40 L 278.10 205.50 L 275.20 205.60 L 274.20 206.50 L 274.40 216.20 L 274.90 217.60 L 276.00 218.90 L 277.50 220.00 L 280.90 221.30 L 282.20 221.20 L 283.30 220.60 L 287.50 216.30 L 288.10 216.00 L 291.40 216.00 L 292.00 209.20 L 286.40 208.30 Z" fill="#ffd6cb" fill-rule="evenodd" group-id="1,12" id="Fill-144" node-id="145" stroke="none" target-height="15.800003" target-width="17.799988" target-x="274.2" target-y="205.5"></path><path d="M 252.30 346.00 L 253.00 343.20 L 253.90 341.40 L 255.10 339.80 L 256.90 338.30 L 258.40 337.70 L 260.00 337.70 L 261.70 338.40 L 263.10 339.60 L 264.60 341.50 L 266.00 344.10 L 270.70 356.90 L 271.10 357.60 L 274.60 359.70 L 276.40 361.90 L 277.00 363.20 L 277.40 370.70 L 276.90 373.10 L 276.50 373.00 L 275.20 371.60 L 265.00 356.60 L 261.40 353.00 L 252.30 346.00" fill="#e8e8e6" fill-rule="evenodd" group-id="1,12" id="Fill-146" node-id="146" stroke="none" target-height="35.399994" target-width="25.09999" target-x="252.3" target-y="337.7"></path></g><g node-id="279"><g node-id="297"><path d="M 252.30 346.00 L 254.80 352.20 L 257.60 357.20 L 260.70 361.60 L 264.90 366.40 L 269.30 370.60 L 273.10 373.40 L 274.60 374.00 L 276.20 374.10 L 276.90 373.40 L 277.20 372.30 L 277.00 369.30 L 275.50 366.00 L 272.70 362.90 L 268.20 359.70 L 267.00 357.80 L 262.70 347.30 L 260.60 343.00 L 259.40 341.80 L 258.30 341.20 L 255.80 341.20 L 253.70 342.50 L 252.90 343.50 L 252.30 346.00" fill="#8e8fa1" fill-rule="evenodd" group-id="1,13,31" id="Fill-148" node-id="151" stroke="none" target-height="32.899994" target-width="24.90001" target-x="252.3" target-y="341.2"></path></g></g><g node-id="280"><path d="M 329.20 344.10 L 329.40 362.40 L 329.20 370.00 L 328.60 375.30 L 329.40 376.70 L 330.70 377.40 L 332.30 377.60 L 334.00 377.40 L 335.60 376.70 L 336.50 375.70 L 337.40 373.80 L 338.60 368.90 L 339.50 363.00 L 339.90 357.20 L 339.80 351.00 L 338.50 337.50 L 337.90 342.00 L 337.40 343.70 L 335.90 345.80 L 334.20 346.50 L 332.80 346.30 L 331.60 345.90 L 329.20 344.10" fill="#e8e8e6" fill-rule="evenodd" group-id="1,14" id="Fill-150" node-id="153" stroke="none" target-height="40.100006" target-width="11.299988" target-x="328.6" target-y="337.5"></path><path d="M 295.20 274.30 L 297.40 272.30 L 300.00 271.00 L 303.10 269.90 L 313.60 268.30 L 317.00 267.20 L 318.40 266.20 L 319.40 265.00 L 320.40 262.10 L 320.50 259.80 L 323.40 266.20 L 321.50 251.30 L 304.60 252.60 L 293.10 269.20 L 295.20 274.30 Z" fill="#ecb9ab" fill-rule="evenodd" group-id="1,14" id="Fill-152" node-id="154" stroke="none" target-height="22.999985" target-width="30.299988" target-x="293.1" target-y="251.3"></path><path d="M 319.60 325.80 L 321.20 326.30 L 323.30 326.00 L 324.30 325.30 L 325.60 323.80 L 326.60 321.40 L 329.90 339.10 L 319.60 325.80 Z" fill="#ecb9ab" fill-rule="evenodd" group-id="1,14" id="Fill-154" node-id="155" stroke="none" target-height="17.700012" target-width="10.299988" target-x="319.6" target-y="321.4"></path><path d="M 262.00 259.60 L 261.00 263.80 L 271.50 266.20 L 276.20 267.50 L 279.40 268.70 L 262.00 259.60" fill="#ecb9ab" fill-rule="evenodd" group-id="1,14" id="Fill-156" node-id="156" stroke="none" target-height="9.100006" target-width="18.399994" target-x="261" target-y="259.6"></path><path d="M 289.60 271.10 L 305.30 269.40 L 311.70 268.10 L 314.10 267.30 L 315.10 266.70 L 316.40 263.60 L 318.80 254.10 L 323.30 262.20 L 324.70 263.70 L 324.90 261.20 L 324.30 255.00 L 322.50 241.60 L 322.10 239.10 L 266.90 231.80 L 263.30 239.60 L 259.30 249.90 L 258.30 254.80 L 258.50 257.10 L 259.60 258.30 L 265.20 261.80 L 276.40 267.30 L 285.20 271.10 L 288.80 265.90 L 289.60 271.10 Z" fill="#ffffff" fill-rule="evenodd" group-id="1,14" id="Fill-158" node-id="157" stroke="none" target-height="39.300003" target-width="66.600006" target-x="258.3" target-y="231.8"></path><path d="M 266.90 231.80 L 322.10 239.10 L 322.50 242.10 L 266.70 232.70 Z" fill="#c1c4d3" fill-rule="evenodd" group-id="1,14" id="Fill-160" node-id="158" stroke="none" target-height="10.300003" target-width="55.799988" target-x="266.7" target-y="231.8"></path><path d="M 276.50 244.90 L 283.70 252.80 L 285.90 255.80 L 287.40 259.80 L 288.80 265.90 L 286.80 269.10 L 286.30 263.90 L 285.10 258.50 L 284.60 257.80 L 277.00 252.80 L 278.80 252.90 L 279.20 252.50 L 279.20 251.50 L 278.40 248.80 L 276.50 244.90" fill="#c1c4d3" fill-rule="evenodd" group-id="1,14" id="Fill-162" node-id="159" stroke="none" target-height="24.200012" target-width="12.299988" target-x="276.5" target-y="244.9"></path><path d="M 295.90 170.40 L 299.40 181.30 L 300.30 181.40 L 303.30 180.80 L 304.90 186.70 L 300.20 184.90 L 297.90 181.60 L 297.10 179.90 L 296.60 177.60 L 295.90 170.40" fill="#c1c4d3" fill-rule="evenodd" group-id="1,14" id="Fill-164" node-id="160" stroke="none" target-height="16.300003" target-width="9" target-x="295.9" target-y="170.4"></path><path d="M 268.10 165.20 L 269.50 170.60 L 271.70 175.60 L 267.20 172.10 L 268.10 165.20 Z" fill="#c1c4d3" fill-rule="evenodd" group-id="1,14" id="Fill-166" node-id="161" stroke="none" target-height="10.400009" target-width="4.5" target-x="267.2" target-y="165.2"></path></g></g></svg>